<mxfile host="app.diagrams.net" modified="2022-12-13T15:05:24.584Z" agent="5.0 (Windows NT 10.0; Win64; x64) AppleWebKit/537.36 (KHTML, like Gecko) Chrome/108.0.0.0 Safari/537.36" etag="-QAabDrXGoHR3k6wSHHE" version="20.6.2" type="github">
  <diagram id="prtHgNgQTEPvFCAcTncT" name="Page-1">
    <mxGraphModel dx="1094" dy="611" grid="1" gridSize="10" guides="1" tooltips="1" connect="1" arrows="1" fold="1" page="1" pageScale="1" pageWidth="827" pageHeight="1169" math="0" shadow="0">
      <root>
        <mxCell id="0" />
        <mxCell id="1" parent="0" />
        <mxCell id="NU90ZFJ5wZLl9fyoopw8-3" value="" style="rounded=0;whiteSpace=wrap;html=1;" vertex="1" parent="1">
          <mxGeometry x="60" y="100" width="730" height="810" as="geometry" />
        </mxCell>
        <mxCell id="NU90ZFJ5wZLl9fyoopw8-1" value="" style="rounded=0;whiteSpace=wrap;html=1;" vertex="1" parent="1">
          <mxGeometry x="80" y="130" width="690" height="760" as="geometry" />
        </mxCell>
        <mxCell id="NU90ZFJ5wZLl9fyoopw8-4" value="SW_Qualification_Test" style="text;html=1;resizable=0;autosize=1;align=center;verticalAlign=middle;points=[];fillColor=none;strokeColor=none;rounded=0;" vertex="1" parent="1">
          <mxGeometry x="80" y="100" width="140" height="30" as="geometry" />
        </mxCell>
        <mxCell id="NU90ZFJ5wZLl9fyoopw8-6" value="&lt;span style=&quot;font-size:11.0pt;font-family:&amp;quot;Calibri&amp;quot;,sans-serif;&lt;br/&gt;mso-ascii-theme-font:minor-latin;mso-fareast-font-family:&amp;quot;Times New Roman&amp;quot;;&lt;br/&gt;mso-fareast-theme-font:minor-fareast;mso-hansi-theme-font:minor-latin;&lt;br/&gt;mso-bidi-font-family:Arial;mso-bidi-theme-font:minor-bidi;mso-ansi-language:&lt;br/&gt;EN-US;mso-fareast-language:EN-US;mso-bidi-language:AR-SA&quot;&gt;SQTS_PLT_LOW_LEVEL_PROCCESSING&lt;/span&gt;" style="text;html=1;resizable=0;autosize=1;align=center;verticalAlign=middle;points=[];fillColor=none;strokeColor=none;rounded=0;" vertex="1" parent="1">
          <mxGeometry x="110" y="135" width="260" height="30" as="geometry" />
        </mxCell>
        <mxCell id="NU90ZFJ5wZLl9fyoopw8-7" value="" style="shape=mxgraph.arrows.signal-in_arrow;html=1;verticalLabelPosition=bottom;verticalAlign=top;strokeWidth=2;strokeColor=#000000;" vertex="1" parent="1">
          <mxGeometry x="90" y="145" width="27" height="10" as="geometry" />
        </mxCell>
        <mxCell id="NU90ZFJ5wZLl9fyoopw8-9" value="generic Qualification tests for PLT variant independent&amp;nbsp;" style="text;html=1;resizable=0;autosize=1;align=center;verticalAlign=middle;points=[];fillColor=none;strokeColor=none;rounded=0;" vertex="1" parent="1">
          <mxGeometry x="130" y="165" width="310" height="30" as="geometry" />
        </mxCell>
        <mxCell id="NU90ZFJ5wZLl9fyoopw8-12" value="&lt;span style=&quot;font-size:11.0pt;font-family:&amp;quot;Calibri&amp;quot;,sans-serif;&lt;br/&gt;mso-ascii-theme-font:minor-latin;mso-fareast-font-family:&amp;quot;Times New Roman&amp;quot;;&lt;br/&gt;mso-fareast-theme-font:minor-fareast;mso-hansi-theme-font:minor-latin;&lt;br/&gt;mso-bidi-font-family:Arial;mso-bidi-theme-font:minor-bidi;mso-ansi-language:&lt;br/&gt;EN-US;mso-fareast-language:EN-US;mso-bidi-language:AR-SA&quot;&gt;SQTS_TDA3&amp;nbsp;&lt;/span&gt;" style="text;html=1;resizable=0;autosize=1;align=center;verticalAlign=middle;points=[];fillColor=none;strokeColor=none;rounded=0;" vertex="1" parent="1">
          <mxGeometry x="108" y="195" width="100" height="30" as="geometry" />
        </mxCell>
        <mxCell id="NU90ZFJ5wZLl9fyoopw8-13" value="" style="shape=mxgraph.arrows.signal-in_arrow;html=1;verticalLabelPosition=bottom;verticalAlign=top;strokeWidth=2;strokeColor=#000000;" vertex="1" parent="1">
          <mxGeometry x="88" y="205" width="27" height="10" as="geometry" />
        </mxCell>
        <mxCell id="NU90ZFJ5wZLl9fyoopw8-14" value="implement the qualification Tests that are specified for the TEX/MAX project" style="text;html=1;resizable=0;autosize=1;align=center;verticalAlign=middle;points=[];fillColor=none;strokeColor=none;rounded=0;" vertex="1" parent="1">
          <mxGeometry x="115" y="230" width="420" height="30" as="geometry" />
        </mxCell>
        <mxCell id="NU90ZFJ5wZLl9fyoopw8-17" value="&lt;span&gt;SQTS_COM&lt;/span&gt;" style="text;html=1;resizable=0;autosize=1;align=center;verticalAlign=middle;points=[];fillColor=none;strokeColor=none;rounded=0;" vertex="1" parent="1">
          <mxGeometry x="113" y="260" width="90" height="30" as="geometry" />
        </mxCell>
        <mxCell id="NU90ZFJ5wZLl9fyoopw8-18" value="" style="shape=mxgraph.arrows.signal-in_arrow;html=1;verticalLabelPosition=bottom;verticalAlign=top;strokeWidth=2;strokeColor=#000000;" vertex="1" parent="1">
          <mxGeometry x="88" y="270" width="27" height="10" as="geometry" />
        </mxCell>
        <mxCell id="NU90ZFJ5wZLl9fyoopw8-19" value="implement the qualification Tests that are specified for the ACPx project" style="text;html=1;resizable=0;autosize=1;align=center;verticalAlign=middle;points=[];fillColor=none;strokeColor=none;rounded=0;" vertex="1" parent="1">
          <mxGeometry x="115" y="290" width="400" height="30" as="geometry" />
        </mxCell>
        <mxCell id="NU90ZFJ5wZLl9fyoopw8-32" value="SQT_test" style="text;html=1;resizable=0;autosize=1;align=center;verticalAlign=middle;points=[];fillColor=none;strokeColor=none;rounded=0;" vertex="1" parent="1">
          <mxGeometry x="117" y="330" width="70" height="30" as="geometry" />
        </mxCell>
        <mxCell id="NU90ZFJ5wZLl9fyoopw8-33" value="" style="shape=mxgraph.arrows.signal-in_arrow;html=1;verticalLabelPosition=bottom;verticalAlign=top;strokeWidth=2;strokeColor=#000000;" vertex="1" parent="1">
          <mxGeometry x="90" y="340" width="27" height="10" as="geometry" />
        </mxCell>
        <mxCell id="NU90ZFJ5wZLl9fyoopw8-34" value="SQTS_Alive_Supervision" style="text;html=1;resizable=0;autosize=1;align=center;verticalAlign=middle;points=[];fillColor=none;strokeColor=none;rounded=0;" vertex="1" parent="1">
          <mxGeometry x="117" y="370" width="160" height="30" as="geometry" />
        </mxCell>
        <mxCell id="NU90ZFJ5wZLl9fyoopw8-35" value="" style="shape=mxgraph.arrows.signal-in_arrow;html=1;verticalLabelPosition=bottom;verticalAlign=top;strokeWidth=2;strokeColor=#000000;" vertex="1" parent="1">
          <mxGeometry x="90" y="380" width="27" height="10" as="geometry" />
        </mxCell>
        <mxCell id="NU90ZFJ5wZLl9fyoopw8-36" value="SQTS_DIAG" style="text;html=1;resizable=0;autosize=1;align=center;verticalAlign=middle;points=[];fillColor=none;strokeColor=none;rounded=0;" vertex="1" parent="1">
          <mxGeometry x="117" y="410" width="90" height="30" as="geometry" />
        </mxCell>
        <mxCell id="NU90ZFJ5wZLl9fyoopw8-38" value="SQTS_DMS_AUTOSAR" style="text;html=1;resizable=0;autosize=1;align=center;verticalAlign=middle;points=[];fillColor=none;strokeColor=none;rounded=0;" vertex="1" parent="1">
          <mxGeometry x="117" y="450" width="150" height="30" as="geometry" />
        </mxCell>
        <mxCell id="NU90ZFJ5wZLl9fyoopw8-40" value="SQT_DMS_Autosar_CAN" style="text;html=1;resizable=0;autosize=1;align=center;verticalAlign=middle;points=[];fillColor=none;strokeColor=none;rounded=0;" vertex="1" parent="1">
          <mxGeometry x="117" y="490" width="160" height="30" as="geometry" />
        </mxCell>
        <mxCell id="NU90ZFJ5wZLl9fyoopw8-42" value="SQTS_DMS_AUTOSAR_LLD_TEMPERATURE" style="text;html=1;resizable=0;autosize=1;align=center;verticalAlign=middle;points=[];fillColor=none;strokeColor=none;rounded=0;" vertex="1" parent="1">
          <mxGeometry x="117" y="530" width="280" height="30" as="geometry" />
        </mxCell>
        <mxCell id="NU90ZFJ5wZLl9fyoopw8-44" value="SQTS_DMS_AUTOSAR_MEMRORY_MAP" style="text;html=1;resizable=0;autosize=1;align=center;verticalAlign=middle;points=[];fillColor=none;strokeColor=none;rounded=0;" vertex="1" parent="1">
          <mxGeometry x="115" y="569.5" width="260" height="30" as="geometry" />
        </mxCell>
        <mxCell id="NU90ZFJ5wZLl9fyoopw8-46" value="" style="shape=mxgraph.arrows.signal-in_arrow;html=1;verticalLabelPosition=bottom;verticalAlign=top;strokeWidth=2;strokeColor=#000000;" vertex="1" parent="1">
          <mxGeometry x="88" y="420" width="27" height="10" as="geometry" />
        </mxCell>
        <mxCell id="NU90ZFJ5wZLl9fyoopw8-47" value="" style="shape=mxgraph.arrows.signal-in_arrow;html=1;verticalLabelPosition=bottom;verticalAlign=top;strokeWidth=2;strokeColor=#000000;" vertex="1" parent="1">
          <mxGeometry x="88" y="460" width="27" height="10" as="geometry" />
        </mxCell>
        <mxCell id="NU90ZFJ5wZLl9fyoopw8-52" value="" style="shape=mxgraph.arrows.signal-in_arrow;html=1;verticalLabelPosition=bottom;verticalAlign=top;strokeWidth=2;strokeColor=#000000;" vertex="1" parent="1">
          <mxGeometry x="90" y="500" width="27" height="10" as="geometry" />
        </mxCell>
        <mxCell id="NU90ZFJ5wZLl9fyoopw8-53" value="" style="shape=mxgraph.arrows.signal-in_arrow;html=1;verticalLabelPosition=bottom;verticalAlign=top;strokeWidth=2;strokeColor=#000000;" vertex="1" parent="1">
          <mxGeometry x="90" y="540" width="27" height="10" as="geometry" />
        </mxCell>
        <mxCell id="NU90ZFJ5wZLl9fyoopw8-56" value="" style="shape=mxgraph.arrows.signal-in_arrow;html=1;verticalLabelPosition=bottom;verticalAlign=top;strokeWidth=2;strokeColor=#000000;" vertex="1" parent="1">
          <mxGeometry x="90" y="580" width="27" height="10" as="geometry" />
        </mxCell>
        <mxCell id="NU90ZFJ5wZLl9fyoopw8-57" value="" style="shape=mxgraph.arrows.signal-in_arrow;html=1;verticalLabelPosition=bottom;verticalAlign=top;strokeWidth=2;strokeColor=#000000;" vertex="1" parent="1">
          <mxGeometry x="90" y="620" width="27" height="10" as="geometry" />
        </mxCell>
        <mxCell id="NU90ZFJ5wZLl9fyoopw8-58" value="" style="shape=mxgraph.arrows.signal-in_arrow;html=1;verticalLabelPosition=bottom;verticalAlign=top;strokeWidth=2;strokeColor=#000000;" vertex="1" parent="1">
          <mxGeometry x="90" y="660" width="27" height="10" as="geometry" />
        </mxCell>
        <mxCell id="NU90ZFJ5wZLl9fyoopw8-59" value="" style="shape=mxgraph.arrows.signal-in_arrow;html=1;verticalLabelPosition=bottom;verticalAlign=top;strokeWidth=2;strokeColor=#000000;" vertex="1" parent="1">
          <mxGeometry x="90" y="700" width="27" height="10" as="geometry" />
        </mxCell>
        <mxCell id="NU90ZFJ5wZLl9fyoopw8-60" value="" style="shape=mxgraph.arrows.signal-in_arrow;html=1;verticalLabelPosition=bottom;verticalAlign=top;strokeWidth=2;strokeColor=#000000;" vertex="1" parent="1">
          <mxGeometry x="90" y="740" width="27" height="10" as="geometry" />
        </mxCell>
        <mxCell id="NU90ZFJ5wZLl9fyoopw8-62" value="SQT_test" style="text;html=1;resizable=0;autosize=1;align=center;verticalAlign=middle;points=[];fillColor=none;strokeColor=none;rounded=0;" vertex="1" parent="1">
          <mxGeometry x="117" y="330" width="70" height="30" as="geometry" />
        </mxCell>
        <mxCell id="NU90ZFJ5wZLl9fyoopw8-63" value="SQTS_Alive_Supervision" style="text;html=1;resizable=0;autosize=1;align=center;verticalAlign=middle;points=[];fillColor=none;strokeColor=none;rounded=0;" vertex="1" parent="1">
          <mxGeometry x="117" y="370" width="160" height="30" as="geometry" />
        </mxCell>
        <mxCell id="NU90ZFJ5wZLl9fyoopw8-64" value="SQTS_DIAG" style="text;html=1;resizable=0;autosize=1;align=center;verticalAlign=middle;points=[];fillColor=none;strokeColor=none;rounded=0;" vertex="1" parent="1">
          <mxGeometry x="117" y="410" width="90" height="30" as="geometry" />
        </mxCell>
        <mxCell id="NU90ZFJ5wZLl9fyoopw8-65" value="SQT_DMS_Autosar_CAN" style="text;html=1;resizable=0;autosize=1;align=center;verticalAlign=middle;points=[];fillColor=none;strokeColor=none;rounded=0;" vertex="1" parent="1">
          <mxGeometry x="117" y="490" width="160" height="30" as="geometry" />
        </mxCell>
        <mxCell id="NU90ZFJ5wZLl9fyoopw8-66" value="SQT_test" style="text;html=1;resizable=0;autosize=1;align=center;verticalAlign=middle;points=[];fillColor=none;strokeColor=none;rounded=0;" vertex="1" parent="1">
          <mxGeometry x="117" y="330" width="70" height="30" as="geometry" />
        </mxCell>
        <mxCell id="NU90ZFJ5wZLl9fyoopw8-67" value="SQTS_Alive_Supervision" style="text;html=1;resizable=0;autosize=1;align=center;verticalAlign=middle;points=[];fillColor=none;strokeColor=none;rounded=0;" vertex="1" parent="1">
          <mxGeometry x="117" y="370" width="160" height="30" as="geometry" />
        </mxCell>
        <mxCell id="NU90ZFJ5wZLl9fyoopw8-68" value="SQTS_DIAG" style="text;html=1;resizable=0;autosize=1;align=center;verticalAlign=middle;points=[];fillColor=none;strokeColor=none;rounded=0;" vertex="1" parent="1">
          <mxGeometry x="117" y="410" width="90" height="30" as="geometry" />
        </mxCell>
        <mxCell id="NU90ZFJ5wZLl9fyoopw8-69" value="SQT_DMS_Autosar_CAN" style="text;html=1;resizable=0;autosize=1;align=center;verticalAlign=middle;points=[];fillColor=none;strokeColor=none;rounded=0;" vertex="1" parent="1">
          <mxGeometry x="117" y="490" width="160" height="30" as="geometry" />
        </mxCell>
        <mxCell id="NU90ZFJ5wZLl9fyoopw8-70" value="SQT_test" style="text;html=1;resizable=0;autosize=1;align=center;verticalAlign=middle;points=[];fillColor=none;strokeColor=none;rounded=0;" vertex="1" parent="1">
          <mxGeometry x="117" y="330" width="70" height="30" as="geometry" />
        </mxCell>
        <mxCell id="NU90ZFJ5wZLl9fyoopw8-71" value="SQTS_Alive_Supervision" style="text;html=1;resizable=0;autosize=1;align=center;verticalAlign=middle;points=[];fillColor=none;strokeColor=none;rounded=0;" vertex="1" parent="1">
          <mxGeometry x="117" y="370" width="160" height="30" as="geometry" />
        </mxCell>
        <mxCell id="NU90ZFJ5wZLl9fyoopw8-72" value="SQTS_DIAG" style="text;html=1;resizable=0;autosize=1;align=center;verticalAlign=middle;points=[];fillColor=none;strokeColor=none;rounded=0;" vertex="1" parent="1">
          <mxGeometry x="117" y="410" width="90" height="30" as="geometry" />
        </mxCell>
        <mxCell id="NU90ZFJ5wZLl9fyoopw8-73" value="SQT_DMS_Autosar_CAN" style="text;html=1;resizable=0;autosize=1;align=center;verticalAlign=middle;points=[];fillColor=none;strokeColor=none;rounded=0;" vertex="1" parent="1">
          <mxGeometry x="117" y="490" width="160" height="30" as="geometry" />
        </mxCell>
        <mxCell id="NU90ZFJ5wZLl9fyoopw8-75" value="SQTS_DMS_AUTOSAR_LLD_TEMPERATURE" style="text;html=1;resizable=0;autosize=1;align=center;verticalAlign=middle;points=[];fillColor=none;strokeColor=none;rounded=0;" vertex="1" parent="1">
          <mxGeometry x="117" y="530" width="280" height="30" as="geometry" />
        </mxCell>
        <mxCell id="NU90ZFJ5wZLl9fyoopw8-76" value="SQT_DMS_PLT_AUTOSAR_DIAG" style="text;html=1;resizable=0;autosize=1;align=center;verticalAlign=middle;points=[];fillColor=none;strokeColor=none;rounded=0;" vertex="1" parent="1">
          <mxGeometry x="117" y="730" width="210" height="30" as="geometry" />
        </mxCell>
        <mxCell id="NU90ZFJ5wZLl9fyoopw8-77" value="SQT_DMS_Manufacturing" style="text;html=1;resizable=0;autosize=1;align=center;verticalAlign=middle;points=[];fillColor=none;strokeColor=none;rounded=0;" vertex="1" parent="1">
          <mxGeometry x="117" y="610" width="160" height="30" as="geometry" />
        </mxCell>
        <mxCell id="NU90ZFJ5wZLl9fyoopw8-78" value="SQTS_SWDL_AT" style="text;html=1;resizable=0;autosize=1;align=center;verticalAlign=middle;points=[];fillColor=none;strokeColor=none;rounded=0;" vertex="1" parent="1">
          <mxGeometry x="117" y="650" width="120" height="30" as="geometry" />
        </mxCell>
        <mxCell id="NU90ZFJ5wZLl9fyoopw8-79" value="SQT_DMS_PLT_AUTOSAR_CYBERSECURITY" style="text;html=1;resizable=0;autosize=1;align=center;verticalAlign=middle;points=[];fillColor=none;strokeColor=none;rounded=0;" vertex="1" parent="1">
          <mxGeometry x="117" y="690" width="280" height="30" as="geometry" />
        </mxCell>
        <mxCell id="NU90ZFJ5wZLl9fyoopw8-80" value="SQTS_DMS_PLT_AUTOSAR_POWER_MANAGEMENT" style="text;html=1;resizable=0;autosize=1;align=center;verticalAlign=middle;points=[];fillColor=none;strokeColor=none;rounded=0;" vertex="1" parent="1">
          <mxGeometry x="441" y="330" width="330" height="30" as="geometry" />
        </mxCell>
        <mxCell id="NU90ZFJ5wZLl9fyoopw8-81" value="SQTS_DMS_PLT_KEY_PERFORMANCE_INDICATORS" style="text;html=1;resizable=0;autosize=1;align=center;verticalAlign=middle;points=[];fillColor=none;strokeColor=none;rounded=0;" vertex="1" parent="1">
          <mxGeometry x="443" y="410" width="330" height="30" as="geometry" />
        </mxCell>
        <mxCell id="NU90ZFJ5wZLl9fyoopw8-82" value="SQTS_DMS_PLT_FACE_TRACKING_DATA" style="text;html=1;resizable=0;autosize=1;align=center;verticalAlign=middle;points=[];fillColor=none;strokeColor=none;rounded=0;" vertex="1" parent="1">
          <mxGeometry x="441" y="370" width="260" height="30" as="geometry" />
        </mxCell>
        <mxCell id="NU90ZFJ5wZLl9fyoopw8-83" value="" style="shape=mxgraph.arrows.signal-in_arrow;html=1;verticalLabelPosition=bottom;verticalAlign=top;strokeWidth=2;strokeColor=#000000;" vertex="1" parent="1">
          <mxGeometry x="90" y="740" width="27" height="10" as="geometry" />
        </mxCell>
        <mxCell id="NU90ZFJ5wZLl9fyoopw8-84" value="" style="shape=mxgraph.arrows.signal-in_arrow;html=1;verticalLabelPosition=bottom;verticalAlign=top;strokeWidth=2;strokeColor=#000000;" vertex="1" parent="1">
          <mxGeometry x="90" y="700" width="27" height="10" as="geometry" />
        </mxCell>
        <mxCell id="NU90ZFJ5wZLl9fyoopw8-85" value="" style="shape=mxgraph.arrows.signal-in_arrow;html=1;verticalLabelPosition=bottom;verticalAlign=top;strokeWidth=2;strokeColor=#000000;" vertex="1" parent="1">
          <mxGeometry x="90" y="660" width="27" height="10" as="geometry" />
        </mxCell>
        <mxCell id="NU90ZFJ5wZLl9fyoopw8-86" value="" style="shape=mxgraph.arrows.signal-in_arrow;html=1;verticalLabelPosition=bottom;verticalAlign=top;strokeWidth=2;strokeColor=#000000;" vertex="1" parent="1">
          <mxGeometry x="90" y="620" width="27" height="10" as="geometry" />
        </mxCell>
        <mxCell id="NU90ZFJ5wZLl9fyoopw8-87" value="" style="shape=mxgraph.arrows.signal-in_arrow;html=1;verticalLabelPosition=bottom;verticalAlign=top;strokeWidth=2;strokeColor=#000000;" vertex="1" parent="1">
          <mxGeometry x="90" y="580" width="27" height="10" as="geometry" />
        </mxCell>
        <mxCell id="NU90ZFJ5wZLl9fyoopw8-88" value="" style="shape=mxgraph.arrows.signal-in_arrow;html=1;verticalLabelPosition=bottom;verticalAlign=top;strokeWidth=2;strokeColor=#000000;" vertex="1" parent="1">
          <mxGeometry x="90" y="540" width="27" height="10" as="geometry" />
        </mxCell>
        <mxCell id="NU90ZFJ5wZLl9fyoopw8-89" value="" style="shape=mxgraph.arrows.signal-in_arrow;html=1;verticalLabelPosition=bottom;verticalAlign=top;strokeWidth=2;strokeColor=#000000;" vertex="1" parent="1">
          <mxGeometry x="90" y="500" width="27" height="10" as="geometry" />
        </mxCell>
        <mxCell id="NU90ZFJ5wZLl9fyoopw8-90" value="" style="shape=mxgraph.arrows.signal-in_arrow;html=1;verticalLabelPosition=bottom;verticalAlign=top;strokeWidth=2;strokeColor=#000000;" vertex="1" parent="1">
          <mxGeometry x="414" y="340" width="27" height="10" as="geometry" />
        </mxCell>
        <mxCell id="NU90ZFJ5wZLl9fyoopw8-91" value="" style="shape=mxgraph.arrows.signal-in_arrow;html=1;verticalLabelPosition=bottom;verticalAlign=top;strokeWidth=2;strokeColor=#000000;" vertex="1" parent="1">
          <mxGeometry x="416" y="620" width="27" height="10" as="geometry" />
        </mxCell>
        <mxCell id="NU90ZFJ5wZLl9fyoopw8-92" value="" style="shape=mxgraph.arrows.signal-in_arrow;html=1;verticalLabelPosition=bottom;verticalAlign=top;strokeWidth=2;strokeColor=#000000;" vertex="1" parent="1">
          <mxGeometry x="416" y="580" width="27" height="10" as="geometry" />
        </mxCell>
        <mxCell id="NU90ZFJ5wZLl9fyoopw8-93" value="" style="shape=mxgraph.arrows.signal-in_arrow;html=1;verticalLabelPosition=bottom;verticalAlign=top;strokeWidth=2;strokeColor=#000000;" vertex="1" parent="1">
          <mxGeometry x="416" y="540" width="27" height="10" as="geometry" />
        </mxCell>
        <mxCell id="NU90ZFJ5wZLl9fyoopw8-94" value="" style="shape=mxgraph.arrows.signal-in_arrow;html=1;verticalLabelPosition=bottom;verticalAlign=top;strokeWidth=2;strokeColor=#000000;" vertex="1" parent="1">
          <mxGeometry x="416" y="500" width="27" height="10" as="geometry" />
        </mxCell>
        <mxCell id="NU90ZFJ5wZLl9fyoopw8-95" value="" style="shape=mxgraph.arrows.signal-in_arrow;html=1;verticalLabelPosition=bottom;verticalAlign=top;strokeWidth=2;strokeColor=#000000;" vertex="1" parent="1">
          <mxGeometry x="416" y="460" width="27" height="10" as="geometry" />
        </mxCell>
        <mxCell id="NU90ZFJ5wZLl9fyoopw8-96" value="" style="shape=mxgraph.arrows.signal-in_arrow;html=1;verticalLabelPosition=bottom;verticalAlign=top;strokeWidth=2;strokeColor=#000000;" vertex="1" parent="1">
          <mxGeometry x="416" y="420" width="27" height="10" as="geometry" />
        </mxCell>
        <mxCell id="NU90ZFJ5wZLl9fyoopw8-97" value="" style="shape=mxgraph.arrows.signal-in_arrow;html=1;verticalLabelPosition=bottom;verticalAlign=top;strokeWidth=2;strokeColor=#000000;" vertex="1" parent="1">
          <mxGeometry x="416" y="380" width="27" height="10" as="geometry" />
        </mxCell>
        <mxCell id="NU90ZFJ5wZLl9fyoopw8-98" value="SQTS_IPC_SPI_DRIVER" style="text;html=1;resizable=0;autosize=1;align=center;verticalAlign=middle;points=[];fillColor=none;strokeColor=none;rounded=0;" vertex="1" parent="1">
          <mxGeometry x="441" y="570" width="160" height="30" as="geometry" />
        </mxCell>
        <mxCell id="NU90ZFJ5wZLl9fyoopw8-99" value="SQTS_SMS" style="text;html=1;resizable=0;autosize=1;align=center;verticalAlign=middle;points=[];fillColor=none;strokeColor=none;rounded=0;" vertex="1" parent="1">
          <mxGeometry x="444" y="690" width="90" height="30" as="geometry" />
        </mxCell>
        <mxCell id="NU90ZFJ5wZLl9fyoopw8-100" value="SQTS_IPC_DATA_LINK" style="text;html=1;resizable=0;autosize=1;align=center;verticalAlign=middle;points=[];fillColor=none;strokeColor=none;rounded=0;" vertex="1" parent="1">
          <mxGeometry x="441" y="450" width="150" height="30" as="geometry" />
        </mxCell>
        <mxCell id="NU90ZFJ5wZLl9fyoopw8-101" value="SQTS_IPC_E2E" style="text;html=1;resizable=0;autosize=1;align=center;verticalAlign=middle;points=[];fillColor=none;strokeColor=none;rounded=0;" vertex="1" parent="1">
          <mxGeometry x="443" y="490" width="110" height="30" as="geometry" />
        </mxCell>
        <mxCell id="NU90ZFJ5wZLl9fyoopw8-102" value="SQT_IPC_HISIP" style="text;html=1;resizable=0;autosize=1;align=center;verticalAlign=middle;points=[];fillColor=none;strokeColor=none;rounded=0;" vertex="1" parent="1">
          <mxGeometry x="441" y="530" width="110" height="30" as="geometry" />
        </mxCell>
        <mxCell id="NU90ZFJ5wZLl9fyoopw8-103" value="SQTS_PLT_AUTOSAR_NVM" style="text;html=1;resizable=0;autosize=1;align=center;verticalAlign=middle;points=[];fillColor=none;strokeColor=none;rounded=0;" vertex="1" parent="1">
          <mxGeometry x="441" y="610" width="180" height="30" as="geometry" />
        </mxCell>
        <mxCell id="NU90ZFJ5wZLl9fyoopw8-104" value="SQTS_RESET_MGR" style="text;html=1;resizable=0;autosize=1;align=center;verticalAlign=middle;points=[];fillColor=none;strokeColor=none;rounded=0;" vertex="1" parent="1">
          <mxGeometry x="443" y="650" width="140" height="30" as="geometry" />
        </mxCell>
        <mxCell id="NU90ZFJ5wZLl9fyoopw8-105" value="SWE5_tests" style="text;html=1;resizable=0;autosize=1;align=center;verticalAlign=middle;points=[];fillColor=none;strokeColor=none;rounded=0;" vertex="1" parent="1">
          <mxGeometry x="441" y="770" width="90" height="30" as="geometry" />
        </mxCell>
        <mxCell id="NU90ZFJ5wZLl9fyoopw8-106" value="SQTS_SWDL_Test_BOOTLOADER" style="text;html=1;resizable=0;autosize=1;align=center;verticalAlign=middle;points=[];fillColor=none;strokeColor=none;rounded=0;" vertex="1" parent="1">
          <mxGeometry x="441" y="730" width="220" height="30" as="geometry" />
        </mxCell>
        <mxCell id="NU90ZFJ5wZLl9fyoopw8-107" value="SQTS_Voltage_Monitoring" style="text;html=1;resizable=0;autosize=1;align=center;verticalAlign=middle;points=[];fillColor=none;strokeColor=none;rounded=0;" vertex="1" parent="1">
          <mxGeometry x="115" y="770" width="170" height="30" as="geometry" />
        </mxCell>
        <mxCell id="NU90ZFJ5wZLl9fyoopw8-108" value="SQTS_WDG" style="text;html=1;resizable=0;autosize=1;align=center;verticalAlign=middle;points=[];fillColor=none;strokeColor=none;rounded=0;" vertex="1" parent="1">
          <mxGeometry x="113" y="810" width="90" height="30" as="geometry" />
        </mxCell>
        <mxCell id="NU90ZFJ5wZLl9fyoopw8-109" value="test_module123" style="text;html=1;resizable=0;autosize=1;align=center;verticalAlign=middle;points=[];fillColor=none;strokeColor=none;rounded=0;" vertex="1" parent="1">
          <mxGeometry x="444" y="810" width="110" height="30" as="geometry" />
        </mxCell>
        <mxCell id="NU90ZFJ5wZLl9fyoopw8-111" value="test_polarion" style="text;html=1;resizable=0;autosize=1;align=center;verticalAlign=middle;points=[];fillColor=none;strokeColor=none;rounded=0;" vertex="1" parent="1">
          <mxGeometry x="117" y="850" width="90" height="30" as="geometry" />
        </mxCell>
        <mxCell id="NU90ZFJ5wZLl9fyoopw8-112" value="" style="shape=mxgraph.arrows.signal-in_arrow;html=1;verticalLabelPosition=bottom;verticalAlign=top;strokeWidth=2;strokeColor=#000000;" vertex="1" parent="1">
          <mxGeometry x="416" y="660" width="27" height="10" as="geometry" />
        </mxCell>
        <mxCell id="NU90ZFJ5wZLl9fyoopw8-113" value="" style="shape=mxgraph.arrows.signal-in_arrow;html=1;verticalLabelPosition=bottom;verticalAlign=top;strokeWidth=2;strokeColor=#000000;" vertex="1" parent="1">
          <mxGeometry x="416" y="700" width="27" height="10" as="geometry" />
        </mxCell>
        <mxCell id="NU90ZFJ5wZLl9fyoopw8-115" value="" style="shape=mxgraph.arrows.signal-in_arrow;html=1;verticalLabelPosition=bottom;verticalAlign=top;strokeWidth=2;strokeColor=#000000;" vertex="1" parent="1">
          <mxGeometry x="92" y="860" width="27" height="10" as="geometry" />
        </mxCell>
        <mxCell id="NU90ZFJ5wZLl9fyoopw8-116" value="" style="shape=mxgraph.arrows.signal-in_arrow;html=1;verticalLabelPosition=bottom;verticalAlign=top;strokeWidth=2;strokeColor=#000000;" vertex="1" parent="1">
          <mxGeometry x="418" y="820" width="27" height="10" as="geometry" />
        </mxCell>
        <mxCell id="NU90ZFJ5wZLl9fyoopw8-117" value="" style="shape=mxgraph.arrows.signal-in_arrow;html=1;verticalLabelPosition=bottom;verticalAlign=top;strokeWidth=2;strokeColor=#000000;" vertex="1" parent="1">
          <mxGeometry x="418" y="780" width="27" height="10" as="geometry" />
        </mxCell>
        <mxCell id="NU90ZFJ5wZLl9fyoopw8-118" value="" style="shape=mxgraph.arrows.signal-in_arrow;html=1;verticalLabelPosition=bottom;verticalAlign=top;strokeWidth=2;strokeColor=#000000;" vertex="1" parent="1">
          <mxGeometry x="90" y="820" width="27" height="10" as="geometry" />
        </mxCell>
        <mxCell id="NU90ZFJ5wZLl9fyoopw8-119" value="" style="shape=mxgraph.arrows.signal-in_arrow;html=1;verticalLabelPosition=bottom;verticalAlign=top;strokeWidth=2;strokeColor=#000000;" vertex="1" parent="1">
          <mxGeometry x="90" y="780" width="27" height="10" as="geometry" />
        </mxCell>
        <mxCell id="NU90ZFJ5wZLl9fyoopw8-120" value="" style="shape=mxgraph.arrows.signal-in_arrow;html=1;verticalLabelPosition=bottom;verticalAlign=top;strokeWidth=2;strokeColor=#000000;" vertex="1" parent="1">
          <mxGeometry x="418" y="740" width="27" height="10" as="geometry" />
        </mxCell>
      </root>
    </mxGraphModel>
  </diagram>
</mxfile>
